<svg width="628" height="400" viewBox="0 0 628 400" fill="none" xmlns="http://www.w3.org/2000/svg">
<path d="M59.6615 144.323C75.4907 144.323 88.3229 131.491 88.3229 115.661C88.3229 99.8322 75.4907 87 59.6615 87C43.8322 87 31 99.8322 31 115.661C31 131.491 43.8322 144.323 59.6615 144.323Z" fill="white"/>
<path d="M59.5432 116.072C57.6415 116.073 55.8159 115.319 54.4693 113.975C53.1227 112.63 52.367 110.806 52.3654 108.905C52.3639 107.001 53.1196 105.177 54.4631 103.831C55.8081 102.486 57.6321 101.729 59.5354 101.729C61.4371 101.729 63.2611 102.483 64.6077 103.828C65.9527 105.173 66.7084 106.998 66.7084 108.9C66.7069 110.8 65.9512 112.623 64.6077 113.968C63.2657 115.311 61.4433 116.068 59.5429 116.071L59.5432 116.072ZM72.8103 129.314H46.2761C45.9745 129.314 45.7288 129.068 45.7288 128.767C45.7366 125.985 46.8453 123.319 48.8139 121.354C50.7809 119.387 53.4463 118.28 56.228 118.274H62.8584C65.6418 118.275 68.31 119.381 70.2789 121.348C72.2475 123.316 73.3547 125.983 73.3578 128.767C73.3578 128.911 73.3003 129.051 73.1976 129.154C73.095 129.257 72.9551 129.314 72.8104 129.314L72.8103 129.314Z" fill="#3088F4"/>
<path d="M451.915 66.8302C466.228 66.8302 477.83 55.2276 477.83 40.9151C477.83 26.6026 466.228 15 451.915 15C437.603 15 426 26.6026 426 40.9151C426 55.2276 437.603 66.8302 451.915 66.8302Z" fill="white"/>
<path d="M460.621 29.8298L452.408 27.7764C452.077 27.6917 451.733 27.6917 451.401 27.7764L443.188 29.8298C442.256 30.0685 441.617 30.9233 441.648 31.8832V44.2036C441.648 49.912 450.108 53.8549 451.073 54.2859C451.61 54.5272 452.22 54.5272 452.757 54.2859C453.722 53.8547 462.182 49.9122 462.182 44.2036V31.8832C462.21 30.9155 461.561 30.0608 460.622 29.8298H460.621Z" fill="#3088F4"/>
<path d="M580.487 365.379L512.59 365C511.958 364.997 511.336 365.161 510.788 365.478C510.24 365.794 509.786 366.251 509.473 366.8C509.16 367.35 508.999 367.973 509.006 368.605C509.014 369.238 509.189 369.857 509.515 370.399L509.854 370.967C510.171 371.495 510.619 371.931 511.155 372.234C511.691 372.537 512.296 372.696 512.911 372.696H580.472C580.941 372.697 581.404 372.604 581.837 372.425C582.269 372.246 582.662 371.984 582.993 371.653C583.324 371.322 583.587 370.929 583.766 370.496C583.945 370.064 584.037 369.6 584.037 369.132V368.943C584.037 368.001 583.663 367.096 582.998 366.428C582.333 365.76 581.43 365.383 580.487 365.379Z" fill="#CBDCFF"/>
<path d="M589.971 369.022V369.132C589.971 369.6 590.063 370.063 590.242 370.496C590.421 370.928 590.684 371.321 591.014 371.652C591.345 371.983 591.738 372.246 592.171 372.425C592.603 372.604 593.067 372.696 593.535 372.696H608.608C609.393 372.696 610.156 372.436 610.778 371.958C611.401 371.48 611.848 370.81 612.05 370.051C612.191 369.526 612.209 368.976 612.104 368.442C611.999 367.909 611.773 367.406 611.444 366.974C611.114 366.541 610.691 366.189 610.204 365.945C609.718 365.702 609.183 365.572 608.639 365.567L593.568 365.458C593.097 365.453 592.63 365.542 592.194 365.719C591.758 365.897 591.361 366.158 591.026 366.49C590.692 366.821 590.426 367.216 590.245 367.65C590.064 368.085 589.97 368.551 589.971 369.022Z" fill="#CBDCFF"/>
<path d="M563.653 378.345L500.396 378C499.621 377.997 498.858 378.147 498.186 378.435C497.514 378.722 496.957 379.137 496.573 379.637C496.189 380.137 495.991 380.704 496 381.279C496.009 381.855 496.224 382.418 496.624 382.911L497.041 383.427C497.429 383.907 497.979 384.304 498.636 384.58C499.293 384.855 500.035 385 500.79 385H563.62C564.196 385.001 564.766 384.918 565.298 384.755C565.83 384.592 566.313 384.353 566.72 384.051C567.127 383.749 567.45 383.391 567.669 382.996C567.889 382.602 568.001 382.179 568 381.752V381.581C567.998 380.725 567.54 379.905 566.726 379.299C565.912 378.693 564.807 378.35 563.653 378.345Z" fill="#CBDCFF"/>
<path d="M573.638 381.815V381.919C573.638 382.864 574.013 383.771 574.682 384.439C575.35 385.108 576.257 385.483 577.202 385.483H592.278C593.062 385.483 593.825 385.224 594.447 384.746C595.07 384.268 595.517 383.598 595.72 382.84C595.861 382.315 595.879 381.764 595.774 381.229C595.669 380.695 595.442 380.192 595.112 379.759C594.782 379.327 594.357 378.975 593.87 378.732C593.383 378.489 592.847 378.36 592.303 378.357L577.231 378.245C576.76 378.241 576.293 378.33 575.857 378.508C575.421 378.686 575.024 378.949 574.69 379.281C574.356 379.613 574.091 380.008 573.91 380.443C573.73 380.878 573.637 381.344 573.638 381.815Z" fill="#CBDCFF"/>
<path d="M565.954 233.028C582.497 233.028 595.907 219.59 595.907 203.014C595.907 186.438 582.497 173 565.954 173C549.411 173 536 186.438 536 203.014C536 219.59 549.411 233.028 565.954 233.028Z" fill="white"/>
<path d="M550.973 196.855C550.973 192.343 554.631 188.686 559.143 188.686C563.655 188.686 567.314 192.343 567.314 196.855C567.314 201.367 563.655 205.025 559.143 205.025C554.631 205.025 550.973 201.367 550.973 196.855ZM556.173 195.376C556.173 196.196 556.837 196.862 557.657 196.862C558.478 196.862 559.143 196.196 559.143 195.376C559.143 194.556 558.478 193.892 557.657 193.892C556.837 193.892 556.173 194.556 556.173 195.376Z" fill="#0F3384"/>
<path d="M562.858 205.774C562.66 205.774 562.472 205.696 562.333 205.557C561.686 204.912 561.686 204.912 561.114 204.34C560.717 203.942 560.888 203.263 561.429 203.102C563.144 202.592 564.868 200.871 565.421 199.175C565.594 198.647 566.261 198.488 566.654 198.879C570.345 202.572 574.95 207.171 580.464 212.676C580.603 212.815 580.683 213.004 580.683 213.201L580.683 217.657C580.683 218.068 580.35 218.401 579.939 218.401L575.483 218.401C575.286 218.401 575.097 218.321 574.958 218.182L574.215 217.44C574.076 217.3 573.998 217.111 573.998 216.915L573.998 214.687L571.77 214.687C571.572 214.687 571.384 214.609 571.245 214.469L570.501 213.726C570.362 213.586 570.284 213.398 570.284 213.201L570.284 210.23L567.314 210.23C567.116 210.23 566.928 210.152 566.789 210.013L566.045 209.269C565.906 209.13 565.828 208.942 565.828 208.744L565.828 205.774L562.858 205.774Z" fill="#0F3384"/>
<path d="M52.9486 222.452L132.126 222.893C132.863 222.898 133.589 222.705 134.228 222.336C134.866 221.968 135.395 221.435 135.761 220.794C136.126 220.153 136.314 219.427 136.305 218.689C136.297 217.952 136.092 217.229 135.712 216.597L135.316 215.935C134.947 215.32 134.424 214.811 133.799 214.457C133.175 214.104 132.469 213.918 131.751 213.919L52.9655 213.919C52.4195 213.918 51.8789 214.026 51.3744 214.234C50.87 214.443 50.4117 214.749 50.0256 215.135C49.6396 215.521 49.3335 215.98 49.1247 216.484C48.9159 216.989 48.8086 217.529 48.8089 218.075L48.8089 218.295C48.8089 219.394 49.2445 220.449 50.0204 221.228C50.7962 222.007 51.8491 222.447 52.9486 222.452Z" fill="#CBDCFF"/>
<path d="M41.8892 218.203L41.8892 218.075C41.8892 217.529 41.7817 216.989 41.5728 216.485C41.3639 215.98 41.0578 215.522 40.6718 215.136C40.2858 214.75 39.8276 214.444 39.3233 214.235C38.819 214.026 38.2785 213.919 37.7327 213.919L20.1549 213.919C19.2396 213.919 18.35 214.221 17.6243 214.779C16.8985 215.337 16.377 216.118 16.1409 217.003C15.9773 217.615 15.956 218.257 16.0786 218.879C16.2013 219.501 16.4646 220.087 16.8485 220.592C17.2324 221.097 17.7267 221.507 18.2935 221.791C18.8603 222.075 19.4846 222.226 20.1187 222.232L37.694 222.36C38.2431 222.365 38.7878 222.261 39.2965 222.054C39.8053 221.848 40.2681 221.542 40.6581 221.156C41.0482 220.77 41.3578 220.31 41.5691 219.803C41.7804 219.296 41.8892 218.752 41.8892 218.203Z" fill="#CBDCFF"/>
<path d="M60.9354 203.285L60.9354 203.164C60.9354 202.062 60.4975 201.004 59.718 200.225C58.9385 199.445 57.8813 199.008 56.7789 199.008L39.1987 199.008C38.2837 199.008 37.3944 199.31 36.6686 199.867C35.9429 200.424 35.4213 201.205 35.1847 202.089C35.0204 202.703 34.9989 203.345 35.1217 203.968C35.2446 204.591 35.5086 205.177 35.8934 205.682C36.2782 206.187 36.7736 206.597 37.3415 206.881C37.9095 207.164 38.5349 207.314 39.1697 207.318L56.7451 207.449C57.2944 207.453 57.8391 207.349 58.3477 207.141C58.8564 206.934 59.319 206.628 59.7086 206.241C60.0983 205.853 60.4073 205.393 60.6179 204.886C60.8285 204.378 60.9364 203.834 60.9354 203.285Z" fill="#CBDCFF"/>
<path d="M71.9946 207.533L132.133 207.975C132.87 207.979 133.596 207.786 134.235 207.417C134.873 207.049 135.403 206.516 135.768 205.875C136.133 205.234 136.321 204.508 136.312 203.77C136.304 203.033 136.099 202.311 135.719 201.678L135.323 201.016C134.954 200.401 134.431 199.892 133.806 199.538C133.182 199.185 132.476 198.999 131.758 199L72.026 199C71.4788 198.998 70.9368 199.105 70.4311 199.314C69.9253 199.523 69.4658 199.83 69.0789 200.216C68.692 200.603 68.3854 201.063 68.1766 201.569C67.9678 202.074 67.8609 202.616 67.8622 203.163L67.8622 203.383C67.8641 204.48 68.2995 205.532 69.0736 206.309C69.8477 207.086 70.8977 207.526 71.9946 207.533Z" fill="#CBDCFF"/>
<path d="M484.777 330.616L484.777 330.631L484.777 330.646C484.772 331.977 484.24 333.251 483.299 334.191C482.357 335.131 481.082 335.661 479.752 335.664H127.231C125.9 335.66 124.626 335.131 123.685 334.191C122.744 333.251 122.213 331.976 122.207 330.646L122.207 330.638L122.207 330.63L119.274 128.06C119.274 128.057 119.274 128.054 119.274 128.05C119.278 126.728 120.12 124.443 121.939 122.527C123.707 120.663 126.279 119.279 129.628 119.507L129.698 119.512L129.769 119.51L474.302 110.597L474.303 110.596C476.325 110.543 478.337 110.901 480.216 111.649C482.095 112.397 483.803 113.519 485.235 114.946C486.668 116.374 487.796 118.078 488.55 119.955C489.304 121.832 489.669 123.842 489.622 125.864L484.777 330.616Z" fill="white" stroke="#2C3543" stroke-width="3"/>
<path d="M474.807 319.1L474.807 319.111L474.807 319.123C474.802 320.389 474.276 321.61 473.329 322.519C472.38 323.429 471.086 323.949 469.728 323.953H136.806C135.448 323.949 134.154 323.429 133.205 322.519C132.258 321.61 131.732 320.389 131.727 319.123L131.727 319.111L129 145.372C129.156 140.503 131.44 137.236 134.359 135.182C137.32 133.1 140.939 132.269 143.636 132.373L143.668 132.374L143.7 132.373L469.003 124.003C469.003 124.003 469.003 124.003 469.003 124.003C470.414 123.968 471.818 124.208 473.127 124.708C474.437 125.207 475.624 125.957 476.618 126.907C477.611 127.857 478.39 128.989 478.91 130.232C479.43 131.475 479.68 132.805 479.647 134.141C479.647 134.141 479.647 134.141 479.647 134.142L474.807 319.1Z" fill="white" stroke="#2C3543" stroke-width="2"/>
<path d="M134.483 236.934C134.351 236.934 134.225 236.882 134.133 236.789C134.04 236.696 133.988 236.57 133.988 236.439L133.767 221.524C133.767 221.393 133.819 221.267 133.912 221.174C134.005 221.081 134.131 221.029 134.262 221.029C134.394 221.029 134.52 221.081 134.612 221.174C134.705 221.267 134.758 221.393 134.758 221.524L134.975 236.439C134.975 236.57 134.923 236.696 134.83 236.789C134.737 236.882 134.612 236.934 134.48 236.934H134.483Z" fill="white"/>
<path d="M513.872 330.522H101.966C100.94 330.522 100.107 331.355 100.107 332.382V346.462C100.107 347.489 100.94 348.322 101.966 348.322H513.872C514.899 348.322 515.732 347.489 515.732 346.462V332.382C515.732 331.355 514.899 330.522 513.872 330.522Z" fill="#2C3543"/>
<path d="M122.323 197.621C122.331 197.497 122.347 197.373 122.37 197.25L122.323 197.621Z" fill="url(#paint0_linear_980_2007)"/>
<path d="M122.323 217.696C122.332 217.572 122.347 217.449 122.37 217.327L122.323 217.696Z" fill="url(#paint1_linear_980_2007)"/>
<path d="M122.323 237.773C122.331 237.649 122.347 237.525 122.37 237.402L122.323 237.773Z" fill="url(#paint2_linear_980_2007)"/>
<path d="M74.057 382.954C74.059 382.885 74.0524 382.816 74.0372 382.748C73.0097 378.68 67.9192 376.147 67.9192 376.147L65.9013 376.306C64.7426 379.891 64.8912 382.09 65.0768 383.068C65.082 383.094 65.0886 383.121 65.0967 383.147C68.0829 383.363 71.0828 383.298 74.057 382.954Z" fill="url(#paint3_linear_980_2007)"/>
<path d="M65.0969 383.147C65.1344 383.303 65.214 383.446 65.3271 383.56C65.4402 383.674 65.5824 383.755 65.7382 383.793C68.1052 384.289 71.8686 383.892 73.4482 383.684C73.6191 383.653 73.7737 383.563 73.8849 383.43C73.9962 383.296 74.0572 383.128 74.0573 382.954C71.0831 383.299 68.0832 383.363 65.0969 383.147Z" fill="#BDD0FB"/>
<path d="M57.1095 310.961C55.8716 312.291 54.027 313.437 52.7371 314.158C54.6658 316.54 57.2729 318.926 60.7268 321.264L61.7172 323.492L64.8864 319.696C64.8864 319.696 59.1992 316.857 57.1095 310.961Z" fill="#FEB3B1"/>
<path d="M65.0894 373.3L65.946 377.415C65.9698 377.557 66.0385 377.687 66.142 377.786C66.2454 377.886 66.3781 377.949 66.5204 377.967C66.9604 378.012 67.4041 378.005 67.8426 377.948C68.0624 377.904 68.2563 377.776 68.382 377.591C68.5077 377.405 68.555 377.177 68.5135 376.957L67.9193 373.305L65.0894 373.3Z" fill="url(#paint4_linear_980_2007)"/>
<path d="M82.807 383.108C80.5786 383.046 79.4249 382.783 78.8306 382.538C78.8306 382.761 78.8306 382.986 78.8306 383.219C78.8286 383.333 78.8711 383.444 78.9492 383.528C79.0272 383.611 79.1348 383.661 79.2491 383.667L91.4826 383.588C91.5743 383.58 91.6628 383.55 91.7401 383.5C91.8174 383.45 91.8812 383.382 91.9258 383.301C91.9703 383.221 91.9943 383.13 91.9956 383.038C91.9969 382.946 91.9755 382.855 91.9332 382.773C90.3238 382.907 86.2386 383.204 82.807 383.108Z" fill="#BDD0FB"/>
<path d="M91.9281 382.773C91.9145 382.741 91.8979 382.71 91.8786 382.681C90.7991 381.171 88.0483 378.165 82.6087 376.863L80.0016 376.779C80.0016 376.779 78.8404 378.799 78.8181 382.538C79.4123 382.785 80.5661 383.033 82.7944 383.107C86.2384 383.204 90.3237 382.907 91.9281 382.773Z" fill="url(#paint5_linear_980_2007)"/>
<path d="M79.5164 372.827C79.5461 373.02 79.9051 375.977 80.0413 377.123C80.0529 377.25 80.1065 377.369 80.1935 377.462C80.2805 377.554 80.3959 377.616 80.5216 377.635C81.1172 377.716 81.7216 377.706 82.3141 377.606C82.4852 377.563 82.6366 377.463 82.743 377.323C82.8493 377.182 82.9042 377.009 82.8985 376.833V372.193L79.5164 372.827Z" fill="url(#paint6_linear_980_2007)"/>
<path d="M77.4244 318.895C77.4244 318.895 83.7157 342.807 83.6142 372.894C83.6137 373.161 83.5217 373.419 83.3536 373.626C83.1855 373.833 82.9515 373.976 82.6907 374.031C81.7296 374.251 80.7475 374.365 79.7617 374.372C79.5126 374.363 79.2742 374.269 79.0866 374.105C78.899 373.941 78.7736 373.717 78.7317 373.471C77.8503 368.296 72.7895 339.152 69.9026 334.421C69.9026 334.421 68.006 360.379 68.6126 373.845C68.62 374.007 68.5658 374.165 68.461 374.288C68.3563 374.411 68.2087 374.49 68.0481 374.509C67.2706 374.596 66.4859 374.596 65.7084 374.509C65.5189 374.49 65.3409 374.409 65.2028 374.278C65.0646 374.147 64.9742 373.974 64.9458 373.786C64.3169 369.406 60.7021 343.344 60.8556 324.569C60.8556 323.512 63.6534 318.907 63.6534 318.907L77.4244 318.895Z" fill="url(#paint7_linear_980_2007)"/>
<path d="M97.9992 267.413C95.2361 272.553 90.6531 277.799 83.1932 279.205C76.3077 280.503 63.943 282.107 58.9713 282.734C57.4783 282.922 56.1082 283.658 55.1262 284.798C51.2192 289.31 42.6476 301.687 52.737 314.158C54.0269 313.44 55.8616 312.291 57.1094 310.961C55.9928 307.815 55.9012 303.794 58.2409 298.864C58.3201 299.255 58.4193 299.642 58.538 300.023C61.7617 310.246 61.935 318.736 61.9276 320.694C61.9267 320.824 61.965 320.951 62.0374 321.059C62.1099 321.167 62.2131 321.25 62.3336 321.298C66.5773 322.999 74.7454 321.989 77.4862 321.578C77.7269 321.542 77.9434 321.411 78.0881 321.215C78.2329 321.019 78.2942 320.774 78.2587 320.533C76.9118 310.783 83.8196 294.747 85.6419 290.728C85.9087 290.14 86.3805 289.669 86.969 289.404C97.4 284.685 101.933 277.42 103.773 270.876C102.183 268.742 99.7175 267.809 97.9992 267.413Z" fill="#FFB400"/>
<path d="M103.773 270.879C106.001 262.956 104.268 256.075 104.268 256.075H101.891C101.195 260.035 99.8814 263.86 97.9993 267.412C99.7176 267.809 102.184 268.742 103.773 270.879Z" fill="url(#paint8_linear_980_2007)"/>
<path d="M102.728 257.338C102.728 257.338 99.1083 252.651 100.284 250.21C101.46 247.769 105.484 248.006 105.484 248.006L106.048 249.918C106.197 250.421 106.177 250.959 105.991 251.45L103.763 257.338H102.728Z" fill="url(#paint9_linear_980_2007)"/>
<path d="M66.3073 273.355L65.4878 281.711C65.4878 281.711 70.192 283.127 73.6063 280.721L71.2047 273.107L66.3073 273.355Z" fill="url(#paint10_linear_980_2007)"/>
<path d="M71.7595 263.822C71.8734 263.929 76.5356 273.082 76.5356 273.082L71.252 275.633L65.5574 267.613C65.5574 267.613 69.8655 262.04 71.7595 263.822Z" fill="#FEB3B1"/>
<path d="M67.8821 267.836C67.8349 267.956 67.8161 268.086 67.8273 268.215C67.8384 268.343 67.8792 268.468 67.9465 268.578L70.5808 272.971C70.6202 273.037 70.6685 273.098 70.7244 273.151C71.0389 273.444 72.111 274.293 72.9528 273.137C73.6609 272.146 74.3244 271.255 75.035 270.886C75.134 270.835 75.2421 270.804 75.3531 270.795C75.4641 270.787 75.5758 270.8 75.6815 270.835C75.7873 270.87 75.8851 270.925 75.9692 270.998C76.0533 271.071 76.1221 271.16 76.1715 271.26C76.8777 272.639 77.481 274.068 77.9764 275.536C78.0386 275.738 78.0222 275.957 77.9304 276.148C77.8386 276.338 77.6782 276.488 77.4812 276.566C76.4116 276.999 74.2972 277.781 72.4229 278.051C72.2718 278.072 72.1177 278.052 71.9773 277.992C71.8369 277.932 71.7153 277.836 71.6257 277.712C70.8185 276.608 68.5432 273.515 67.7657 272.743C67.0452 272.025 65.7132 272.295 65.114 272.468C65.0017 272.5 64.8839 272.509 64.768 272.494C64.6521 272.479 64.5406 272.439 64.4406 272.379C63.8241 272 62.752 271.086 63.7424 269.541C63.8533 269.354 63.8871 269.13 63.8368 268.918C63.7865 268.705 63.6559 268.521 63.4725 268.403C62.7941 267.957 62.0563 267.118 62.7594 265.758C63.4626 264.399 64.7402 264.273 65.6043 264.364C65.792 264.39 65.9831 264.355 66.1487 264.263C66.3144 264.171 66.4457 264.027 66.5228 263.854C66.5585 263.763 66.6179 263.682 66.6949 263.621C66.7718 263.559 66.8637 263.519 66.9611 263.505C67.068 263.486 67.1701 263.447 67.2615 263.388C67.3529 263.329 67.4316 263.253 67.4932 263.164C67.5547 263.074 67.5978 262.973 67.62 262.867C67.6421 262.761 67.6428 262.651 67.6221 262.545C67.4711 261.765 67.585 260.754 68.8279 260.069C71.1082 258.816 73.1038 260.858 73.6114 262.582C74.1189 264.305 71.5712 265.523 69.9668 265.726C68.7883 265.88 68.1421 267.165 67.8821 267.836Z" fill="url(#paint11_linear_980_2007)"/>
<path d="M68.7487 274.345C68.7487 274.345 67.736 271.374 66.4387 271.488C65.1413 271.602 64.1187 272.889 65.7231 274.345C67.7261 276.15 68.7487 274.345 68.7487 274.345Z" fill="#FEB3B1"/>
<path d="M69.6846 333.807C69.6323 333.805 69.5819 333.787 69.5405 333.755C69.4991 333.723 69.469 333.679 69.4544 333.629C68.9319 331.616 65.0249 329.405 64.9977 329.382C64.9607 329.344 64.937 329.295 64.9302 329.242C64.9235 329.189 64.9339 329.135 64.9601 329.089C64.9862 329.043 65.0266 329.006 65.0753 328.984C65.1241 328.963 65.1785 328.957 65.2304 328.969C65.3988 329.063 69.3528 331.301 69.9347 333.51C69.9472 333.57 69.9366 333.633 69.905 333.687C69.8734 333.74 69.823 333.779 69.7638 333.797C69.7386 333.807 69.7114 333.81 69.6846 333.807Z" fill="url(#paint12_linear_980_2007)"/>
<path d="M396.957 202.432C396.772 201.392 396.214 198.557 395.811 197.918C395.534 197.468 395.444 197.091 395.534 196.767C395.581 196.621 395.66 196.488 395.763 196.375C395.867 196.262 395.994 196.173 396.135 196.113L396.284 196.037L398.718 198.102L399.46 200.067L398.995 200.241L398.309 198.396L396.234 196.638C396.137 196.699 396.063 196.792 396.026 196.901C395.974 197.081 396.051 197.336 396.247 197.658C396.769 198.505 397.433 202.187 397.46 202.343L396.957 202.432Z" fill="url(#paint13_linear_980_2007)"/>
<path d="M167.886 242.87H152.484V309.524H167.886V242.87Z" fill="#3088F4"/>
<path d="M193.626 265.78H178.223V309.527H193.626V265.78Z" fill="#3088F4"/>
<path d="M219.363 209.163H203.96V309.524H219.363V209.163Z" fill="#3088F4"/>
<path d="M245.1 285.414H229.698V309.524H245.1V285.414Z" fill="#3088F4"/>
<path d="M270.837 222.58H255.435V309.524H270.837V222.58Z" fill="#3088F4"/>
<path d="M296.575 237.636H281.172V309.527H296.575V237.636Z" fill="#3088F4"/>
<path d="M322.314 253.997H306.912V309.524H322.314V253.997Z" fill="#3088F4"/>
<path d="M348.051 188.873H332.649V309.524H348.051V188.873Z" fill="#3088F4"/>
<path d="M373.788 201.636H358.386V309.527H373.788V201.636Z" fill="#3088F4"/>
<path d="M399.526 220.946H384.123V309.527H399.526V220.946Z" fill="#3088F4"/>
<path d="M425.265 287.652H409.862V309.525H425.265V287.652Z" fill="#3088F4"/>
<path d="M451.002 245.163H435.6V309.527H451.002V245.163Z" fill="#3088F4"/>
<path d="M390.113 120.108C389.939 117.468 389.064 114.923 387.577 112.734C386.09 110.546 384.046 108.795 381.655 107.662L318.628 77.7242C316.635 76.7777 314.456 76.2866 312.249 76.2866C310.043 76.2866 307.864 76.7777 305.871 77.7242L242.844 107.662C240.453 108.795 238.409 110.546 236.922 112.734C235.435 114.923 234.559 117.468 234.386 120.108C228.474 211.502 287.07 244.803 306.276 253.216C308.159 254.041 310.193 254.467 312.249 254.467C314.306 254.467 316.34 254.041 318.223 253.216C337.43 244.803 396.025 211.502 390.113 120.108Z" fill="#FFB400"/>
<path d="M294.94 158.926H289.061V135.619C289.063 131.19 290.694 126.916 293.645 123.6C296.597 120.285 300.666 118.159 305.085 117.622L317.108 116.17C319.668 115.86 322.265 116.094 324.727 116.857C327.19 117.62 329.461 118.894 331.391 120.595C333.321 122.296 334.867 124.386 335.925 126.725C336.983 129.065 337.53 131.601 337.529 134.166V154.513H331.65V134.166C331.65 132.428 331.279 130.711 330.562 129.126C329.845 127.542 328.798 126.127 327.491 124.975C326.183 123.822 324.645 122.959 322.977 122.442C321.309 121.925 319.55 121.766 317.816 121.975L305.795 123.43C302.802 123.794 300.046 125.234 298.047 127.479C296.047 129.724 294.942 132.619 294.94 135.619V158.926Z" fill="white"/>
<path d="M287.294 153.766L338.901 150.911C339.397 150.884 339.894 150.958 340.361 151.128C340.828 151.299 341.256 151.563 341.617 151.904C341.978 152.246 342.266 152.657 342.462 153.113C342.659 153.569 342.76 154.06 342.76 154.557V195.374C342.76 195.854 342.665 196.328 342.482 196.771C342.298 197.215 342.029 197.617 341.689 197.956C341.349 198.295 340.946 198.564 340.503 198.747C340.059 198.931 339.583 199.025 339.103 199.025H288.728C287.778 199.025 286.865 198.655 286.183 197.995C285.5 197.334 285.103 196.434 285.074 195.486L283.833 157.523C283.803 156.569 284.149 155.642 284.796 154.939C285.443 154.237 286.34 153.816 287.294 153.766Z" fill="white"/>
<path d="M321.671 187.362L318.562 178.456C318.377 177.932 318.343 177.366 318.463 176.823C318.583 176.28 318.853 175.781 319.243 175.382C320.444 174.17 321.249 172.623 321.551 170.946C321.853 169.269 321.639 167.54 320.936 165.986C320.233 164.433 319.075 163.128 317.613 162.244C316.152 161.359 314.456 160.936 312.748 161.031C311.041 161.126 309.402 161.733 308.048 162.774C306.694 163.815 305.688 165.239 305.163 166.861C304.637 168.482 304.616 170.224 305.103 171.858C305.59 173.491 306.562 174.939 307.891 176.012C308.379 176.397 308.734 176.922 308.91 177.517C309.086 178.111 309.072 178.745 308.872 179.332L306.069 187.362C305.911 187.815 305.864 188.299 305.932 188.774C306 189.249 306.181 189.7 306.459 190.091C306.738 190.482 307.107 190.8 307.535 191.02C307.962 191.24 308.437 191.354 308.918 191.354H318.832C319.312 191.353 319.785 191.237 320.211 191.016C320.638 190.796 321.005 190.477 321.283 190.087C321.56 189.696 321.741 189.245 321.808 188.771C321.876 188.298 321.829 187.815 321.671 187.362Z" fill="#FFB400"/>
<path d="M432.54 216.679C432.54 216.679 435.6 218.164 436.162 219.878C436.615 221.249 439.997 221.428 440.331 224.126C440.405 224.802 440.699 225.434 441.167 225.926C441.636 226.418 442.253 226.743 442.924 226.85C446.39 227.38 451.706 229.175 452.558 235.174C453.209 239.754 450.874 241.492 448.423 242.092C447.551 242.292 446.791 242.821 446.301 243.568C445.81 244.316 445.628 245.224 445.791 246.103C446.14 247.836 445.62 249.858 442.602 251.453C435.835 255.023 429.078 242.995 429.078 242.995L427.694 221.992L432.54 216.679Z" fill="black"/>
<path d="M399.258 200.352C399.258 200.352 407.966 224.086 422.799 231.504C422.799 231.504 417.862 239.558 415.285 240.048C415.285 240.048 399.439 219.766 397.822 203.157L399.258 200.352Z" fill="#FEB3B1"/>
<path d="M458.921 343.116L459.357 346.716C459.396 347.048 459.546 347.358 459.783 347.594C460.02 347.83 460.329 347.98 460.662 348.018C462.261 348.211 463.875 348.236 465.48 348.093C465.667 348.071 465.846 348.008 466.006 347.909C466.166 347.81 466.302 347.677 466.404 347.519C466.506 347.361 466.572 347.183 466.597 346.996C466.622 346.81 466.606 346.62 466.549 346.441C466.106 345.052 465.299 342.975 464.133 341.737H460.142C459.968 341.738 459.796 341.776 459.638 341.848C459.48 341.92 459.339 342.024 459.224 342.154C459.109 342.284 459.022 342.437 458.97 342.603C458.918 342.769 458.901 342.943 458.921 343.116Z" fill="url(#paint14_linear_980_2007)"/>
<path d="M427.648 300.953L426.974 304.915C426.974 304.915 429.23 327.775 429.631 336.918C429.694 338.351 429.325 339.77 428.571 340.991L424.647 347.364L434.62 341.479L434.818 340.261L433.186 338.015L435.326 312.407C435.45 310.903 435.139 309.394 434.432 308.061L432.367 304.187L427.648 300.953Z" fill="#FEB3B1"/>
<path d="M423.991 348.288H427.172C427.466 348.289 427.756 348.223 428.019 348.094C428.283 347.966 428.513 347.778 428.693 347.545C429.683 346.258 431.743 343.742 432.726 343.675C434.048 343.586 433.88 348.291 433.88 348.291H434.622L435.563 342.445C435.677 341.728 435.563 340.993 435.237 340.345C434.911 339.696 434.389 339.166 433.746 338.83C433.746 338.83 433.444 341.058 431.805 342.049C430.166 343.039 425.12 346.582 425.12 346.582C424.69 346.531 424.254 346.542 423.827 346.614C422.83 346.803 422.971 348.288 423.991 348.288Z" fill="url(#paint15_linear_980_2007)"/>
<path d="M441.307 302.835C441.307 302.835 454.528 327.916 456.63 333.64C458.733 339.365 459.468 344.143 459.495 344.596C459.54 345.302 460.419 345.98 462.843 345.98C464.081 345.98 464.704 345.485 465.007 344.99C465.13 344.785 465.2 344.552 465.209 344.312C465.218 344.073 465.166 343.835 465.059 343.621C464.293 342.073 461.867 337.126 460.968 334.883C459.896 332.204 457.586 320.067 456.321 315.846C455.056 311.625 453.625 307.047 448.111 302.83C448.111 302.835 444.325 299.129 441.307 302.835Z" fill="#FEB3B1"/>
<path d="M432.956 261.742C429.544 247.29 438.185 239.117 438.185 239.117C432.738 233.883 422.8 231.504 422.8 231.504C422.8 231.504 413.322 238.436 414.446 243.856C415.107 247.035 421.109 262.896 421.109 262.896C421.109 262.896 426.66 265.523 432.956 261.742Z" fill="url(#paint16_linear_980_2007)"/>
<path d="M440.518 268.898C439.129 264.716 432.956 261.742 432.956 261.742C426.66 265.523 421.109 262.896 421.109 262.896C421.109 262.896 419.871 267.655 420.723 272.077C421.574 276.499 426.974 304.915 426.974 304.915C435.467 306.648 448.53 303.182 448.53 303.182C443.12 293.58 441.904 273.077 440.518 268.898Z" fill="#FFB400"/>
<path d="M428.997 221.952L431.77 234.408C432.035 235.505 431.027 235.324 429.925 235.116C428.108 234.775 425.768 234.069 424.974 232.655C424.898 232.508 424.85 232.349 424.832 232.185L423.639 223.549C423.593 223.215 423.657 222.876 423.821 222.582C423.985 222.288 424.24 222.056 424.548 221.92L426.848 220.9C427.056 220.805 427.283 220.758 427.511 220.761C427.74 220.764 427.965 220.818 428.171 220.919C428.376 221.019 428.557 221.164 428.7 221.343C428.842 221.521 428.944 221.729 428.997 221.952Z" fill="#FF928E"/>
<path d="M438.185 239.117C438.185 239.117 457.537 252.963 440.661 267.511C440.13 268.037 439.473 268.418 438.752 268.618C438.113 268.808 436.222 270.239 435.263 270.985C435.191 271.041 435.107 271.081 435.018 271.103C434.929 271.125 434.836 271.128 434.745 271.112C434.655 271.096 434.569 271.061 434.492 271.01C434.416 270.958 434.352 270.892 434.303 270.814C434.223 270.686 434.177 270.54 434.169 270.389C434.16 270.239 434.189 270.089 434.253 269.952L436.647 264.887C436.97 264.585 437.389 264.409 437.829 264.39C438.27 264.371 438.702 264.51 439.049 264.783C439.156 264.867 439.28 264.926 439.412 264.956C439.544 264.986 439.682 264.986 439.814 264.956C439.947 264.926 440.071 264.867 440.177 264.783C440.284 264.699 440.371 264.592 440.431 264.471C441.736 261.811 444.199 253.997 434.117 245.158C433.933 244.997 433.809 244.778 433.764 244.538C433.719 244.297 433.756 244.048 433.87 243.831C434.58 242.477 436.199 239.773 438.185 239.117Z" fill="#FEB3B1"/>
<path d="M427.174 215.339C427.174 215.339 423.891 216.726 421.658 221.472C419.425 226.218 421.091 228.405 423.186 228.709C425.28 229.014 428.412 228.957 431.725 225.896C435.038 222.836 431.443 213.703 427.174 215.339Z" fill="#FEB3B1"/>
<path d="M429.504 223.371C429.504 223.371 431.98 216.438 425.827 216.347L424.379 217.36C424.379 217.36 422.119 213.509 425.827 211.665C429.536 209.82 433.872 211.346 435.449 216.339C437.026 221.333 437.296 224.676 434.671 227.065C432.047 229.454 430.958 226.746 430.958 226.746C430.958 226.746 432.386 224.517 431.804 223.317C431.222 222.116 429.881 223.564 429.881 223.564L429.504 223.371Z" fill="black"/>
<path d="M430.19 224.146C430.19 224.146 431.443 220.568 433.114 221.992C434.785 223.416 431.755 225.297 430.569 225.904L430.19 224.146Z" fill="#FEB3B1"/>
<path d="M503.161 313.286H500.115V347.627H503.161V313.286Z" fill="#91B3FA"/>
<path d="M514.978 348.288H488.298V346.929C488.298 346.742 488.372 346.562 488.504 346.43C488.637 346.298 488.816 346.223 489.003 346.223H514.218C514.318 346.223 514.417 346.242 514.51 346.28C514.602 346.318 514.686 346.374 514.757 346.445C514.828 346.516 514.884 346.599 514.923 346.692C514.961 346.784 514.981 346.883 514.981 346.983L514.978 348.288Z" fill="#91B3FA"/>
<path d="M516.545 305.442H487.854C485.932 305.442 484.373 307 484.373 308.923V312.072C484.373 313.995 485.932 315.554 487.854 315.554H516.545C518.468 315.554 520.027 313.995 520.027 312.072V308.923C520.027 307 518.468 305.442 516.545 305.442Z" fill="#91B3FA"/>
<path d="M474.633 336.225C474.633 336.225 464.784 340.469 465.348 344.908C465.348 344.908 475.529 342.955 477.352 340.046C479.174 337.136 478.169 335.45 478.169 335.45L474.633 336.225Z" fill="url(#paint17_linear_980_2007)"/>
<path d="M477.045 331.377L477.54 335.7C477.581 336.018 477.514 336.34 477.351 336.616C477.187 336.891 476.935 337.103 476.636 337.218C476.237 337.351 475.819 337.415 475.398 337.409C475.033 337.413 474.676 337.296 474.384 337.076C474.092 336.857 473.88 336.547 473.781 336.196L472.811 332.7L477.045 331.377Z" fill="url(#paint18_linear_980_2007)"/>
<path d="M498.56 298.23C498.56 298.23 480.447 297.391 471.432 302.647C462.417 307.903 471.897 333.14 471.897 333.14C471.897 333.14 474.252 333.635 477.641 331.835C477.641 331.835 472.803 313.365 481.207 310.154C490.657 306.542 500.43 307.43 500.43 307.43L498.62 298.817L498.56 298.23Z" fill="#2C3543"/>
<path d="M467.329 342.96C469.386 342.509 475.499 339.989 476.423 340.011C477.347 340.033 478.666 341.435 478.666 341.435C478.666 341.435 478.891 342.195 478.228 343.287C476.656 344.524 473.276 346.768 469.315 347C466.415 347.181 464.672 346.03 463.674 344.911C464.701 343.953 465.961 343.28 467.329 342.96Z" fill="url(#paint19_linear_980_2007)"/>
<path d="M469.322 347.005C473.264 346.758 476.656 344.505 478.236 343.292C477.787 344.034 476.933 344.916 475.326 345.824C471.345 348.075 464.762 347.746 463.457 347.241C462.41 346.835 462.734 345.857 463.69 344.928C464.68 346.042 466.423 347.194 469.322 347.005Z" fill="#4955EF"/>
<path d="M480.828 339.174C480.694 339.684 479.251 341.214 478.416 342.071C478.222 342.27 477.98 342.417 477.713 342.497C477.446 342.577 477.163 342.588 476.891 342.529C476.511 342.451 476.144 342.322 475.799 342.145C475.677 342.077 475.569 341.986 475.482 341.876C475.395 341.767 475.331 341.641 475.292 341.506C475.254 341.372 475.242 341.231 475.258 341.092C475.274 340.953 475.318 340.819 475.386 340.697L477.495 336.859L480.828 339.174Z" fill="url(#paint20_linear_980_2007)"/>
<path d="M516.513 296.712C516.513 296.712 518.093 307.93 513.522 310.223C508.952 312.516 498.914 314.016 495.468 319.835C492.021 325.653 485.812 337.072 480.167 340.352C480.167 340.352 476.948 339.305 476 337.718C476 337.718 482.702 320.104 485.497 315.824C487.916 312.11 491.457 306.774 496.486 304.464C497.927 303.803 498.038 302.275 497.785 300.711L497.325 297.863L516.513 296.712Z" fill="#2C3543"/>
<path d="M462.271 278.093C465.064 276.945 467.433 279.235 467.433 279.235C470.201 282.07 472.385 283.498 474.14 283.996C474.259 285.894 473.786 287.781 472.786 289.398C469.332 287.816 467.319 284.617 466.49 283.023C466.348 282.746 466.104 282.535 465.809 282.434C465.514 282.334 465.192 282.352 464.91 282.486C464.318 282.773 463.707 283.209 463.672 283.803C463.595 284.972 462.204 285.041 462.187 284.61C462.169 284.179 463.264 281.867 463.264 281.867C463.264 281.867 460.045 283.924 458.807 284.712C457.569 285.499 456.495 284.202 456.495 284.202C456.495 284.202 459.478 279.24 462.271 278.093Z" fill="url(#paint21_linear_980_2007)"/>
<path d="M496.107 252.425L499.511 259.095C499.678 259.419 499.749 259.784 499.714 260.147C499.68 260.509 499.541 260.854 499.316 261.141C498.377 262.314 496.421 263.894 493.081 262.874C492.595 262.723 492.157 262.448 491.809 262.076C491.462 261.703 491.218 261.247 491.101 260.752L489.338 253.307L496.107 252.425Z" fill="#FEB3B1"/>
<path fill-rule="evenodd" clip-rule="evenodd" d="M514.041 259.927C513.911 259.839 505.273 254.131 484.628 264.679C484.628 264.679 483.335 266.322 483.228 268.485C482.536 272.491 479.645 285.567 474.141 283.996C474.259 285.894 473.786 287.781 472.786 289.399C474.581 290.215 476.57 290.507 478.523 290.24C483.868 289.577 488.122 285.548 490.651 282.466C493.908 287.943 497.086 293.993 497.325 297.864C497.325 297.864 505.768 302.833 516.726 297.906C516.726 297.906 518.335 288.918 517.583 277.786C519.328 279.724 520.639 281.727 520.425 283.216C522.431 283.981 525.377 285.826 527.533 290.253C528.766 289.254 529.687 287.925 530.19 286.42C534.491 274.504 514.045 259.915 514.045 259.915L514.041 259.927Z" fill="url(#paint22_linear_980_2007)"/>
<path d="M505.476 284.342C505.476 284.342 517.608 287.727 520.108 284.038C520.276 283.792 520.383 283.511 520.423 283.216C522.431 283.981 525.375 285.825 527.531 290.265C521.777 294.793 510.695 289.718 507.667 288.197C507.173 287.946 506.601 287.898 506.072 288.064C505 288.398 503.141 288.918 502.111 288.861C500.598 288.777 498.971 294.249 496.394 292.864C496.389 292.864 497.56 283.513 505.476 284.342Z" fill="#FEB3B1"/>
<path d="M489.003 242.079C489.003 242.079 485.829 247.352 485.289 250.266C484.75 253.181 483.853 255.005 487.171 256.043C490.489 257.08 493.574 255.768 495.508 253.047C495.508 253.047 498.531 248.858 498.231 246.941C497.931 245.025 489.003 242.079 489.003 242.079Z" fill="url(#paint23_linear_980_2007)"/>
<path d="M494.616 250.789L494.185 250.734C494.185 250.734 496.434 247.337 494.963 246.495C493.492 245.654 487.5 243.589 486.461 241.229C485.47 238.954 486.956 236.384 488.768 235.849C488.824 235.833 488.883 235.839 488.934 235.866C488.985 235.893 489.024 235.938 489.043 235.993L489.149 236.28C489.17 236.319 489.2 236.352 489.238 236.376C489.275 236.399 489.318 236.413 489.362 236.414C489.407 236.415 489.45 236.404 489.489 236.383C489.528 236.362 489.56 236.33 489.583 236.292C489.601 236.251 489.63 236.217 489.668 236.193C489.705 236.168 489.749 236.155 489.793 236.155C489.838 236.155 489.881 236.168 489.919 236.193C489.956 236.217 489.986 236.251 490.004 236.292C490.323 236.998 491.284 238.206 494.166 239.139C498.253 240.464 500.801 242.524 500.487 245.431C500.482 245.472 500.489 245.514 500.506 245.551C500.523 245.589 500.55 245.622 500.583 245.646C500.617 245.67 500.657 245.684 500.698 245.688C500.74 245.691 500.781 245.684 500.818 245.666C501.153 245.517 501.66 245.495 502.247 246.139C503.272 247.258 502.47 249.704 499.675 251.437C499.644 251.456 499.617 251.481 499.598 251.512C499.578 251.542 499.566 251.576 499.563 251.612C499.559 251.648 499.564 251.685 499.577 251.718C499.59 251.752 499.611 251.782 499.637 251.806C500.056 252.165 500.645 252.962 498.754 253.676C496.82 254.401 495.765 254.156 495.374 254C495.325 253.978 495.284 253.94 495.258 253.893C495.232 253.845 495.222 253.791 495.23 253.737L495.726 251.192C495.732 251.161 495.731 251.129 495.724 251.098C495.717 251.067 495.704 251.038 495.686 251.012C495.667 250.986 495.644 250.965 495.616 250.948C495.589 250.932 495.559 250.922 495.527 250.917L494.616 250.789Z" fill="black"/>
<path d="M494.428 251.314C494.428 251.314 495.829 247.862 497.3 249.086C498.771 250.309 495.941 252.98 494.634 252.943L494.428 251.314Z" fill="url(#paint24_linear_980_2007)"/>
<path d="M489.999 292.06H489.934L461.62 292.04C461.284 292.04 460.961 291.907 460.723 291.669C460.486 291.431 460.352 291.109 460.352 290.773C460.352 290.436 460.486 290.114 460.723 289.876C460.961 289.638 461.284 289.505 461.62 289.505L489.932 289.535C490.268 289.526 490.594 289.652 490.837 289.884C491.081 290.116 491.222 290.435 491.23 290.771C491.239 291.108 491.113 291.433 490.881 291.677C490.649 291.92 490.33 292.062 489.994 292.07L489.999 292.06Z" fill="#E0E1E3"/>
<path d="M436.167 266.353H459.748C460.6 266.353 461.435 266.595 462.154 267.051C462.874 267.508 463.45 268.159 463.813 268.93L474.707 292.043H445.405C444.856 292.043 444.32 291.878 443.867 291.569C443.413 291.26 443.064 290.821 442.865 290.31L434.412 268.92C434.301 268.635 434.261 268.326 434.296 268.022C434.331 267.717 434.439 267.426 434.612 267.173C434.785 266.92 435.017 266.713 435.288 266.57C435.559 266.427 435.861 266.353 436.167 266.353Z" fill="#DFE1E3"/>
<path d="M452.78 278.202C453.291 279.792 452.914 281.332 451.936 281.646C450.958 281.961 449.755 280.928 449.242 279.341C448.73 277.754 449.109 276.212 450.087 275.897C451.065 275.583 452.268 276.615 452.78 278.202Z" fill="#3088F4"/>
<path d="M439.99 348.288C439.83 348.288 439.671 348.259 439.522 348.201C439.384 348.158 439.257 348.086 439.15 347.99C439.042 347.894 438.955 347.776 438.897 347.645C438.838 347.513 438.807 347.37 438.807 347.226C438.808 347.081 438.839 346.939 438.898 346.807L463.851 295.033C463.996 294.764 464.237 294.557 464.526 294.455C464.815 294.352 465.132 294.361 465.415 294.479C465.553 294.522 465.68 294.594 465.787 294.69C465.895 294.787 465.981 294.904 466.039 295.036C466.098 295.168 466.128 295.31 466.128 295.455C466.127 295.599 466.096 295.741 466.037 295.873L441.085 347.647C440.98 347.845 440.822 348.01 440.629 348.123C440.435 348.236 440.214 348.294 439.99 348.288Z" fill="#91B3FA"/>
<path d="M468.102 348.288C467.878 348.293 467.657 348.236 467.463 348.122C467.27 348.009 467.112 347.844 467.007 347.647L442.055 295.873C441.995 295.741 441.964 295.599 441.964 295.455C441.963 295.31 441.993 295.168 442.052 295.036C442.111 294.904 442.197 294.787 442.304 294.69C442.412 294.594 442.539 294.522 442.676 294.479C442.959 294.361 443.276 294.352 443.565 294.455C443.855 294.557 444.095 294.764 444.241 295.033L469.193 346.807C469.253 346.939 469.284 347.081 469.284 347.225C469.285 347.37 469.255 347.512 469.196 347.644C469.137 347.776 469.051 347.893 468.944 347.99C468.836 348.086 468.709 348.158 468.572 348.201C468.422 348.259 468.262 348.288 468.102 348.288Z" fill="#91B3FA"/>
<path d="M517.231 348.288C517.071 348.288 516.912 348.259 516.763 348.201C516.625 348.158 516.498 348.086 516.391 347.99C516.283 347.894 516.196 347.777 516.137 347.645C516.078 347.513 516.048 347.37 516.048 347.226C516.049 347.082 516.08 346.939 516.139 346.807L541.094 295.034C541.24 294.764 541.48 294.559 541.769 294.456C542.057 294.354 542.373 294.362 542.656 294.479C542.794 294.522 542.921 294.595 543.028 294.691C543.136 294.787 543.222 294.904 543.281 295.036C543.34 295.168 543.37 295.31 543.37 295.454C543.37 295.599 543.339 295.741 543.28 295.873L518.325 347.647C518.221 347.845 518.063 348.01 517.87 348.124C517.676 348.237 517.455 348.294 517.231 348.288Z" fill="#91B3FA"/>
<path d="M545.343 348.288C545.119 348.293 544.898 348.236 544.705 348.123C544.512 348.009 544.354 347.845 544.249 347.647L519.296 295.873C519.237 295.741 519.206 295.599 519.206 295.454C519.205 295.31 519.236 295.167 519.295 295.035C519.353 294.904 519.44 294.786 519.548 294.69C519.655 294.594 519.782 294.522 519.92 294.479C520.203 294.362 520.519 294.354 520.808 294.456C521.096 294.559 521.337 294.764 521.483 295.034L546.435 346.807C546.494 346.939 546.525 347.081 546.526 347.225C546.526 347.37 546.496 347.512 546.437 347.644C546.379 347.776 546.293 347.894 546.185 347.99C546.078 348.086 545.951 348.158 545.813 348.201C545.663 348.259 545.504 348.288 545.343 348.288Z" fill="#91B3FA"/>
<path d="M548.269 293.325C548.331 292.951 548.242 292.567 548.022 292.258C547.926 292.118 547.798 292.003 547.649 291.922C547.5 291.841 547.334 291.797 547.165 291.792H433.644C433.418 291.799 433.198 291.865 433.007 291.986C432.815 292.107 432.66 292.277 432.557 292.478C432.439 292.695 432.371 292.935 432.356 293.181C432.342 293.427 432.382 293.673 432.473 293.902L433.711 296.962C433.827 297.288 434.038 297.572 434.316 297.777C434.594 297.982 434.928 298.099 435.273 298.114H546.392C546.716 298.095 547.022 297.963 547.257 297.741C547.492 297.518 547.64 297.219 547.675 296.898L548.269 293.325Z" fill="#91B3FA"/>
<path d="M398.424 204.672C398.29 205.093 399.828 205.737 400.734 204.009C400.766 203.182 401.269 199.636 400.776 198.96C398.142 195.37 393.034 190.869 393.034 190.869C392.793 191.075 392.643 191.367 392.615 191.683C392.586 191.998 392.683 192.312 392.883 192.558L395.359 195.138C394.841 196.074 394.21 196.871 393.913 197.997C393.696 198.862 393.82 199.777 394.26 200.552C394.746 201.445 395.276 202.313 395.849 203.152C396.136 203.584 396.516 203.944 396.962 204.208C397.408 204.471 397.908 204.63 398.424 204.672Z" fill="#FEB3B1"/>
<path d="M216.445 80.8894C228.841 80.8894 238.889 70.8405 238.889 58.4447C238.889 46.0488 228.841 36 216.445 36C204.049 36 194 46.0488 194 58.4447C194 70.8405 204.049 80.8894 216.445 80.8894Z" fill="white"/>
<path d="M222.087 66.5842H214.721C214.519 66.5993 214.318 66.6061 214.113 66.6061C213.909 66.6061 213.707 66.5993 213.505 66.5842H206.965C206.801 66.5993 206.635 66.6061 206.466 66.6061C206.299 66.6061 206.132 66.5993 205.969 66.5842H205.868V66.5733C203.322 66.2896 201.345 64.2176 201.345 61.7029C201.345 59.1622 203.365 57.0725 205.95 56.8244C206.518 52.6655 209.956 49.4668 214.113 49.4668C216.97 49.4668 219.489 50.9783 220.969 53.2738C221.492 53.1217 222.042 53.0409 222.61 53.0409C225.579 53.0409 228.068 55.2486 228.738 58.221H228.767L228.796 58.2197C231.215 58.2197 233.176 60.0971 233.176 62.4129C233.176 64.5357 231.53 66.2884 229.395 66.568V66.5844H229.257C229.106 66.5995 228.951 66.6064 228.797 66.6064C228.64 66.6064 228.487 66.5995 228.335 66.5844H223.131C222.96 66.5995 222.785 66.6064 222.61 66.6064C222.435 66.6064 222.26 66.5995 222.088 66.5844L222.087 66.5842Z" fill="#0F3384"/>
<defs>
<linearGradient id="paint0_linear_980_2007" x1="122.323" y1="197.436" x2="122.37" y2="197.436" gradientUnits="userSpaceOnUse">
<stop stop-color="#4042E2"/>
<stop offset="1" stop-color="#4F52FF"/>
</linearGradient>
<linearGradient id="paint1_linear_980_2007" x1="136.476" y1="458.939" x2="136.485" y2="458.939" gradientUnits="userSpaceOnUse">
<stop stop-color="#09005D"/>
<stop offset="1" stop-color="#1A0F91"/>
</linearGradient>
<linearGradient id="paint2_linear_980_2007" x1="136.476" y1="510.739" x2="136.485" y2="510.739" gradientUnits="userSpaceOnUse">
<stop stop-color="#4042E2"/>
<stop offset="1" stop-color="#4F52FF"/>
</linearGradient>
<linearGradient id="paint3_linear_980_2007" x1="66068.3" y1="8729.73" x2="66403.4" y2="8729.73" gradientUnits="userSpaceOnUse">
<stop stop-color="#09005D"/>
<stop offset="1" stop-color="#1A0F91"/>
</linearGradient>
<linearGradient id="paint4_linear_980_2007" x1="25711" y1="5683.35" x2="25666.5" y2="5968.19" gradientUnits="userSpaceOnUse">
<stop stop-color="#FF928E"/>
<stop offset="1" stop-color="#FEB3B1"/>
</linearGradient>
<linearGradient id="paint5_linear_980_2007" x1="96625.8" y1="7825.72" x2="97319.9" y2="7825.72" gradientUnits="userSpaceOnUse">
<stop stop-color="#09005D"/>
<stop offset="1" stop-color="#1A0F91"/>
</linearGradient>
<linearGradient id="paint6_linear_980_2007" x1="25498.9" y1="6622.51" x2="25437.5" y2="6952.51" gradientUnits="userSpaceOnUse">
<stop stop-color="#FF928E"/>
<stop offset="1" stop-color="#FEB3B1"/>
</linearGradient>
<linearGradient id="paint7_linear_980_2007" x1="171213" y1="48026" x2="158781" y2="55912.6" gradientUnits="userSpaceOnUse">
<stop stop-color="#09005D"/>
<stop offset="1" stop-color="#1A0F91"/>
</linearGradient>
<linearGradient id="paint8_linear_980_2007" x1="52813.1" y1="10099.8" x2="52107.9" y2="10564.4" gradientUnits="userSpaceOnUse">
<stop stop-color="#FF928E"/>
<stop offset="1" stop-color="#FEB3B1"/>
</linearGradient>
<linearGradient id="paint9_linear_980_2007" x1="46482.7" y1="6320.34" x2="46000.2" y2="6764.87" gradientUnits="userSpaceOnUse">
<stop stop-color="#FF928E"/>
<stop offset="1" stop-color="#FEB3B1"/>
</linearGradient>
<linearGradient id="paint10_linear_980_2007" x1="60737.2" y1="6891.61" x2="60471.7" y2="7924.76" gradientUnits="userSpaceOnUse">
<stop stop-color="#FF928E"/>
<stop offset="1" stop-color="#FEB3B1"/>
</linearGradient>
<linearGradient id="paint11_linear_980_2007" x1="99981.2" y1="-2657.16" x2="100587" y2="-3300.5" gradientUnits="userSpaceOnUse">
<stop stop-color="#09005D"/>
<stop offset="1" stop-color="#1A0F91"/>
</linearGradient>
<linearGradient id="paint12_linear_980_2007" x1="35689.8" y1="4934.14" x2="35600.1" y2="5099.23" gradientUnits="userSpaceOnUse">
<stop stop-color="#09005D"/>
<stop offset="1" stop-color="#1A0F91"/>
</linearGradient>
<linearGradient id="paint13_linear_980_2007" x1="-10538.7" y1="3912.34" x2="-10475.5" y2="3912.34" gradientUnits="userSpaceOnUse">
<stop stop-color="#A22B25"/>
<stop offset="1" stop-color="#C0423C"/>
</linearGradient>
<linearGradient id="paint14_linear_980_2007" x1="-19862.8" y1="7870.3" x2="-19623.6" y2="7870.3" gradientUnits="userSpaceOnUse">
<stop stop-color="#4042E2"/>
<stop offset="1" stop-color="#4F52FF"/>
</linearGradient>
<linearGradient id="paint15_linear_980_2007" x1="-34953.8" y1="11332.6" x2="-34327.2" y2="11332.6" gradientUnits="userSpaceOnUse">
<stop stop-color="#4042E2"/>
<stop offset="1" stop-color="#4F52FF"/>
</linearGradient>
<linearGradient id="paint16_linear_980_2007" x1="37368.3" y1="22736.5" x2="34631.3" y2="28442" gradientUnits="userSpaceOnUse">
<stop stop-color="#4042E2"/>
<stop offset="1" stop-color="#4F52FF"/>
</linearGradient>
<linearGradient id="paint17_linear_980_2007" x1="-25585.7" y1="6357.98" x2="-25523.2" y2="6833.35" gradientUnits="userSpaceOnUse">
<stop stop-color="#09005D"/>
<stop offset="1" stop-color="#1A0F91"/>
</linearGradient>
<linearGradient id="paint18_linear_980_2007" x1="-9484.98" y1="5618.68" x2="-9585.52" y2="5596.11" gradientUnits="userSpaceOnUse">
<stop stop-color="#FF928E"/>
<stop offset="1" stop-color="#FEB3B1"/>
</linearGradient>
<linearGradient id="paint19_linear_980_2007" x1="-28372.5" y1="2798.42" x2="-28246.9" y2="3825.43" gradientUnits="userSpaceOnUse">
<stop stop-color="#09005D"/>
<stop offset="1" stop-color="#1A0F91"/>
</linearGradient>
<linearGradient id="paint20_linear_980_2007" x1="-10816.9" y1="5036.64" x2="-10927.9" y2="5011.72" gradientUnits="userSpaceOnUse">
<stop stop-color="#FF928E"/>
<stop offset="1" stop-color="#FEB3B1"/>
</linearGradient>
<linearGradient id="paint21_linear_980_2007" x1="-34277" y1="4679.65" x2="-35503.1" y2="4404.4" gradientUnits="userSpaceOnUse">
<stop stop-color="#FF928E"/>
<stop offset="1" stop-color="#FEB3B1"/>
</linearGradient>
<linearGradient id="paint22_linear_980_2007" x1="38214.1" y1="23469.3" x2="42910.1" y2="29097.6" gradientUnits="userSpaceOnUse">
<stop stop-color="#4042E2"/>
<stop offset="1" stop-color="#4F52FF"/>
</linearGradient>
<linearGradient id="paint23_linear_980_2007" x1="-114871" y1="53312.2" x2="-115142" y2="52522.3" gradientUnits="userSpaceOnUse">
<stop stop-color="#FF928E"/>
<stop offset="1" stop-color="#FEB3B1"/>
</linearGradient>
<linearGradient id="paint24_linear_980_2007" x1="-26497.5" y1="16078.1" x2="-26587.5" y2="15864.9" gradientUnits="userSpaceOnUse">
<stop stop-color="#FF928E"/>
<stop offset="1" stop-color="#FEB3B1"/>
</linearGradient>
</defs>
</svg>
